<?xml version="1.0" encoding="utf-8"?>
<!-- Generator: Adobe Illustrator 17.1.0, SVG Export Plug-In . SVG Version: 6.00 Build 0)  -->
<!DOCTYPE svg PUBLIC "-//W3C//DTD SVG 1.1//EN" "http://www.w3.org/Graphics/SVG/1.1/DTD/svg11.dtd">
<svg version="1.1" id="Calque_1" xmlns="http://www.w3.org/2000/svg" xmlns:xlink="http://www.w3.org/1999/xlink" x="0px" y="0px"
	 viewBox="0 0 80.016 71.211" style="enable-background:new 0 0 80.016 71.211;" xml:space="preserve">
<style type="text/css">
	.st0{fill:#E1057A;}
</style>
<g>
	<path class="st0" d="M72.355,71.211H7.66c-2.039,0-3.695-1.656-3.695-3.695V17.121c0-0.883,0.715-1.598,1.598-1.598
		c0.882,0,1.601,0.715,1.601,1.598v50.395c0,0.269,0.227,0.496,0.496,0.496h64.695c0.27,0,0.497-0.227,0.497-0.496V17.121
		c0-0.883,0.714-1.598,1.601-1.598c0.883,0,1.598,0.715,1.598,1.598v50.395C76.051,69.555,74.395,71.211,72.355,71.211
		L72.355,71.211z"/>
	<path class="st0" d="M77.02,18.723H2.996C1.344,18.723,0,17.379,0,15.727V2.996C0,1.344,1.344,0,2.996,0H77.02
		c1.652,0,2.996,1.344,2.996,2.996v12.731C80.016,17.379,78.672,18.723,77.02,18.723L77.02,18.723z M3.199,15.523h73.617V3.199
		H3.199V15.523z"/>
	<path class="st0" d="M47.262,40.016H32.754c-4.328,0-7.848-3.52-7.848-7.848c0-4.328,3.52-7.848,7.848-7.848h14.508
		c4.328,0,7.851,3.52,7.851,7.848C55.109,36.496,51.59,40.016,47.262,40.016L47.262,40.016z M32.754,27.52
		c-2.563,0-4.649,2.085-4.649,4.648c0,2.566,2.086,4.648,4.649,4.648h14.508c2.562,0,4.648-2.082,4.648-4.648
		c0-2.563-2.082-4.648-4.648-4.648H32.754z"/>
</g>
</svg>
