<?xml version="1.0" encoding="utf-8"?>
<!-- Generator: Adobe Illustrator 17.1.0, SVG Export Plug-In . SVG Version: 6.00 Build 0)  -->
<!DOCTYPE svg PUBLIC "-//W3C//DTD SVG 1.1//EN" "http://www.w3.org/Graphics/SVG/1.1/DTD/svg11.dtd">
<svg version="1.1" id="Calque_1" xmlns="http://www.w3.org/2000/svg" xmlns:xlink="http://www.w3.org/1999/xlink" x="0px" y="0px"
	 viewBox="0 0 79.848 78.718" style="enable-background:new 0 0 79.848 78.718;" xml:space="preserve">
<style type="text/css">
	.st0{fill:#E1057A;}
</style>
<g>
	<path class="st0" d="M76.219,78.718H3.633C1.629,78.718,0,77.089,0,75.089V25.32h79.848v49.769
		C79.848,77.089,78.223,78.718,76.219,78.718L76.219,78.718z M3.199,28.519v46.57c0,0.231,0.199,0.43,0.434,0.43h72.586
		c0.234,0,0.429-0.199,0.429-0.43v-46.57H3.199z"/>
	<path class="st0" d="M1.602,31.66C0.719,31.66,0,30.945,0,30.062V5.25h12.957c0.883,0,1.598,0.714,1.598,1.597
		c0,0.887-0.715,1.602-1.598,1.602H3.199v21.613C3.199,30.945,2.484,31.66,1.602,31.66L1.602,31.66z"/>
	<path class="st0" d="M78.25,31.66c-0.883,0-1.602-0.715-1.602-1.598V8.449h-9.753c-0.883,0-1.598-0.715-1.598-1.602
		c0-0.883,0.715-1.597,1.598-1.597h12.953v24.812C79.848,30.945,79.133,31.66,78.25,31.66L78.25,31.66z"/>
	<path class="st0" d="M53.07,8.449H26.777c-0.882,0-1.597-0.715-1.597-1.602c0-0.883,0.715-1.597,1.597-1.597H53.07
		c0.887,0,1.602,0.714,1.602,1.597C54.672,7.734,53.957,8.449,53.07,8.449L53.07,8.449z"/>
	<path class="st0" d="M19.645,13.347c-0.883,0-1.598-0.718-1.598-1.601V1.601C18.047,0.718,18.762,0,19.645,0
		c0.886,0,1.601,0.718,1.601,1.601v10.145C21.246,12.632,20.531,13.347,19.645,13.347L19.645,13.347z"/>
	<path class="st0" d="M59.762,13.347c-0.883,0-1.602-0.718-1.602-1.601V1.601C58.16,0.718,58.879,0,59.762,0
		s1.601,0.718,1.601,1.601v10.145C61.363,12.632,60.645,13.347,59.762,13.347L59.762,13.347z"/>
	<path class="st0" d="M19.645,69.875c-0.883,0-1.598-0.715-1.598-1.598V37.902c0-0.883,0.715-1.602,1.598-1.602
		c0.886,0,1.601,0.719,1.601,1.602v30.375C21.246,69.16,20.531,69.875,19.645,69.875L19.645,69.875z"/>
	<path class="st0" d="M33.02,69.875c-0.887,0-1.602-0.715-1.602-1.598V37.902c0-0.883,0.715-1.602,1.602-1.602
		c0.882,0,1.597,0.719,1.597,1.602v30.375C34.617,69.16,33.902,69.875,33.02,69.875L33.02,69.875z"/>
	<path class="st0" d="M46.391,69.875c-0.883,0-1.602-0.715-1.602-1.598V37.902c0-0.883,0.719-1.602,1.602-1.602
		c0.882,0,1.597,0.719,1.597,1.602v30.375C47.988,69.16,47.273,69.875,46.391,69.875L46.391,69.875z"/>
	<path class="st0" d="M59.762,69.875c-0.883,0-1.602-0.715-1.602-1.598V37.902c0-0.883,0.719-1.602,1.602-1.602
		s1.601,0.719,1.601,1.602v30.375C61.363,69.16,60.645,69.875,59.762,69.875L59.762,69.875z"/>
	<path class="st0" d="M69.824,60.718H10.023c-0.882,0-1.597-0.714-1.597-1.597c0-0.887,0.715-1.602,1.597-1.602h59.801
		c0.883,0,1.602,0.715,1.602,1.602C71.426,60.004,70.707,60.718,69.824,60.718L69.824,60.718z"/>
	<path class="st0" d="M69.824,48.558H10.023c-0.882,0-1.597-0.715-1.597-1.597c0-0.883,0.715-1.602,1.597-1.602h59.801
		c0.883,0,1.602,0.719,1.602,1.602C71.426,47.843,70.707,48.558,69.824,48.558L69.824,48.558z"/>
</g>
</svg>
