<?xml version="1.0" encoding="utf-8"?>
<!-- Generator: Adobe Illustrator 17.1.0, SVG Export Plug-In . SVG Version: 6.00 Build 0)  -->
<!DOCTYPE svg PUBLIC "-//W3C//DTD SVG 1.1//EN" "http://www.w3.org/Graphics/SVG/1.1/DTD/svg11.dtd">
<svg version="1.1" id="Calque_1" xmlns="http://www.w3.org/2000/svg" xmlns:xlink="http://www.w3.org/1999/xlink" x="0px" y="0px"
	 viewBox="0 0 14.0665 14.0527" style="enable-background:new 0 0 14.0665 14.0527;" xml:space="preserve">
<style type="text/css">
	.st0{fill:#E0097A;}
</style>
<path class="st0" d="M2.4232,0.29l-2.13,2.14c-0.391,0.39-0.391,1.03,0,1.42l0,0l3.18,3.18l-3.17,3.17c-0.39,0.4-0.39,1.03,0,1.431
	l0,0l2.14,2.13c0.391,0.389,1.03,0.389,1.42,0l0,0l3.171-3.17l3.17,3.17c0.39,0.389,1.029,0.389,1.42,0l0,0l2.13-2.13
	c0.399-0.4,0.399-1.03,0-1.431l0,0l-3.17-3.17l3.189-3.18c0.391-0.39,0.391-1.03,0-1.42l0,0l-2.13-2.14
	c-0.2-0.19-0.46-0.29-0.71-0.29l0,0c-0.26,0-0.52,0.1-0.71,0.29l0,0l-3.189,3.189l-3.19-3.189C3.6542,0.1,3.3942,0,3.1342,0l0,0
	C2.8833,0,2.6233,0.1,2.4232,0.29L2.4232,0.29z"/>
</svg>
