<?xml version="1.0" encoding="utf-8"?>
<!-- Generator: Adobe Illustrator 17.1.0, SVG Export Plug-In . SVG Version: 6.00 Build 0)  -->
<!DOCTYPE svg PUBLIC "-//W3C//DTD SVG 1.1//EN" "http://www.w3.org/Graphics/SVG/1.1/DTD/svg11.dtd">
<svg version="1.1" id="Calque_1" xmlns="http://www.w3.org/2000/svg" xmlns:xlink="http://www.w3.org/1999/xlink" x="0px" y="0px"
	 viewBox="0 0 80.203 96.828" style="enable-background:new 0 0 80.203 96.828;" xml:space="preserve">
<style type="text/css">
	.st0{fill:#E1057A;}
</style>
<g>
	<path class="st0" d="M40.125,12.66c-1.492,0-2.945-0.535-4.09-1.504c-1.422-1.203-2.238-2.965-2.238-4.828
		C33.797,2.84,36.637,0,40.125,0c3.492,0,6.332,2.84,6.332,6.328c0,2.059-1.004,3.992-2.687,5.176
		C42.703,12.258,41.441,12.66,40.125,12.66L40.125,12.66z M40.125,3.199C38.402,3.199,37,4.605,37,6.328
		c0,0.922,0.402,1.793,1.105,2.387c1.063,0.902,2.696,0.969,3.821,0.176c0.832-0.59,1.332-1.547,1.332-2.563
		C43.258,4.605,41.852,3.199,40.125,3.199L40.125,3.199z"/>
	<path class="st0" d="M40.102,96.828C17.988,96.828,0,78.836,0,56.727c0-22.114,17.988-40.102,40.102-40.102
		c22.113,0,40.101,17.988,40.101,40.102C80.203,78.836,62.215,96.828,40.102,96.828L40.102,96.828z M40.102,19.824
		c-20.348,0-36.903,16.555-36.903,36.903c0,20.347,16.555,36.902,36.903,36.902c20.351,0,36.902-16.555,36.902-36.902
		C77.004,36.379,60.449,19.824,40.102,19.824L40.102,19.824z"/>
	<path class="st0" d="M45.297,63.543c-0.422,0-0.828-0.164-1.133-0.469L33.777,52.691c-0.355-0.359-0.523-0.863-0.449-1.363
		c0.074-0.504,0.379-0.937,0.824-1.18l22.477-12.089c0.621-0.336,1.391-0.223,1.891,0.277c0.496,0.5,0.609,1.266,0.277,1.887
		l-12.09,22.48c-0.242,0.445-0.676,0.75-1.18,0.824C45.449,63.539,45.375,63.543,45.297,63.543L45.297,63.543z M37.563,51.949
		l7.343,7.344l8.551-15.895L37.563,51.949z"/>
	<path class="st0" d="M22.82,75.637c-0.418,0-0.824-0.16-1.132-0.469c-0.5-0.5-0.614-1.266-0.282-1.891L33.5,50.801
		c0.418-0.778,1.387-1.071,2.168-0.649c0.777,0.418,1.07,1.387,0.652,2.164l-9.57,17.789l17.789-9.57
		c0.777-0.418,1.75-0.125,2.168,0.652c0.418,0.778,0.125,1.747-0.652,2.165L23.574,75.445C23.336,75.574,23.074,75.637,22.82,75.637
		L22.82,75.637z"/>
	<path class="st0" d="M7.77,58.352H1.676c-0.883,0-1.602-0.719-1.602-1.602c0-0.883,0.719-1.598,1.602-1.598H7.77
		c0.882,0,1.601,0.715,1.601,1.598C9.371,57.633,8.652,58.352,7.77,58.352L7.77,58.352z"/>
	<path class="st0" d="M78.578,58.352h-6.094c-0.882,0-1.601-0.719-1.601-1.602c0-0.883,0.719-1.598,1.601-1.598h6.094
		c0.883,0,1.598,0.715,1.598,1.598C80.176,57.637,79.461,58.352,78.578,58.352L78.578,58.352z"/>
	<path class="st0" d="M40.129,96.777c-0.887,0-1.602-0.718-1.602-1.601v-6.094c0-0.883,0.715-1.598,1.602-1.598
		c0.883,0,1.598,0.715,1.598,1.598v6.094C41.727,96.059,41.012,96.777,40.129,96.777L40.129,96.777z"/>
	<path class="st0" d="M40.129,25.969c-0.887,0-1.602-0.715-1.602-1.602v-6.094c0-0.882,0.715-1.597,1.602-1.597
		c0.883,0,1.598,0.715,1.598,1.597v6.094C41.727,25.254,41.012,25.969,40.129,25.969L40.129,25.969z"/>
</g>
</svg>
