<?xml version="1.0" encoding="utf-8"?>
<!-- Generator: Adobe Illustrator 17.1.0, SVG Export Plug-In . SVG Version: 6.00 Build 0)  -->
<!DOCTYPE svg PUBLIC "-//W3C//DTD SVG 1.1//EN" "http://www.w3.org/Graphics/SVG/1.1/DTD/svg11.dtd">
<svg version="1.1" id="Calque_1" xmlns="http://www.w3.org/2000/svg" xmlns:xlink="http://www.w3.org/1999/xlink" x="0px" y="0px"
	 viewBox="0 0 80.207 80.203" style="enable-background:new 0 0 80.207 80.203;" xml:space="preserve">
<style type="text/css">
	.st0{fill:#A19B87;}
</style>
<g>
	<path class="st0" d="M40.102,80.203C17.988,80.203,0,62.215,0,40.102C0,17.988,17.988,0,40.102,0
		c22.117,0,40.105,17.988,40.105,40.102C80.207,62.215,62.219,80.203,40.102,80.203L40.102,80.203z M40.102,3.199
		c-20.348,0-36.903,16.555-36.903,36.903c0,20.347,16.555,36.902,36.903,36.902c20.351,0,36.906-16.555,36.906-36.902
		C77.008,19.754,60.453,3.199,40.102,3.199L40.102,3.199z"/>
	<path class="st0" d="M44.848,62.156H33.191V41.699h-4.23V31.453h4.23V28.82c0-7.148,3.622-10.773,10.766-10.773h7.25v10.254h-5.129
		c-0.738,0-1.039,0.09-1.14,0.129c-0.051,0.16-0.075,0.527-0.075,1.093l-0.008,1.93h6.571l-1.09,10.246h-5.484v20.457H44.848z
		 M36.391,58.953h5.257V38.5h5.813l0.406-3.848h-6.222l0.019-5.132c0-2.293,0.535-4.418,4.414-4.418h1.93V21.25h-4.051
		c-5.375,0-7.566,2.191-7.566,7.57v5.832H32.16v3.852h4.231V58.953z"/>
</g>
</svg>
