<?xml version="1.0" encoding="utf-8"?>
<!-- Generator: Adobe Illustrator 17.1.0, SVG Export Plug-In . SVG Version: 6.00 Build 0)  -->
<!DOCTYPE svg PUBLIC "-//W3C//DTD SVG 1.1//EN" "http://www.w3.org/Graphics/SVG/1.1/DTD/svg11.dtd">
<svg version="1.1" id="Calque_1" xmlns="http://www.w3.org/2000/svg" xmlns:xlink="http://www.w3.org/1999/xlink" x="0px" y="0px"
	 viewBox="0 0 64.8 81" style="enable-background:new 0 0 64.8 81;" xml:space="preserve">
<style type="text/css">
	.st0{fill:#E1057A;}
	.st1{clip-path:url(#SVGID_2_);fill:#E1057A;}
</style>
<g>
	<path class="st0" d="M46.895,80.421c-0.883,0-1.602-0.718-1.602-1.601c0-8.352-6.793-15.145-15.145-15.145
		c-8.351,0-15.144,6.793-15.144,15.145c0,0.883-0.715,1.601-1.598,1.601c-0.886,0-1.601-0.718-1.601-1.601
		c0-10.113,8.23-18.344,18.343-18.344c10.118,0,18.344,8.231,18.344,18.344C48.492,79.703,47.777,80.421,46.895,80.421
		L46.895,80.421z"/>
	<path class="st0" d="M58.301,80.421H1.996c-0.883,0-1.598-0.718-1.598-1.601s0.715-1.598,1.598-1.598h56.305
		c0.883,0,1.601,0.715,1.601,1.598S59.184,80.421,58.301,80.421L58.301,80.421z"/>
	<path class="st0" d="M30.148,54.593c-6.683,0-12.968-2.601-17.691-7.328c-9.758-9.758-9.758-25.633-0.004-35.386
		C17.18,7.152,23.465,4.55,30.148,4.55c6.684,0,12.969,2.602,17.696,7.329c4.726,4.726,7.328,11.007,7.328,17.691
		s-2.602,12.969-7.328,17.695C43.113,51.992,36.832,54.593,30.148,54.593L30.148,54.593z M30.148,7.75
		c-5.828,0-11.308,2.269-15.429,6.39c-8.508,8.508-8.508,22.352,0,30.864c4.121,4.121,9.601,6.39,15.429,6.39
		c5.829,0,11.309-2.269,15.43-6.39c8.512-8.508,8.512-22.356,0-30.864C41.457,10.019,35.977,7.75,30.148,7.75L30.148,7.75z"/>
	<path class="st0" d="M13.586,47.734c-0.41,0-0.816-0.156-1.133-0.469c-0.621-0.625-0.621-1.636,0-2.261l33.125-33.125
		c0.625-0.625,1.641-0.625,2.266,0c0.625,0.625,0.625,1.636,0,2.261L14.719,47.265C14.406,47.578,13.996,47.734,13.586,47.734
		L13.586,47.734z"/>
	<path class="st0" d="M46.711,47.734c-0.41,0-0.816-0.156-1.133-0.469L12.453,14.14c-0.621-0.625-0.621-1.636,0-2.261
		c0.625-0.625,1.641-0.625,2.266,0l33.125,33.125c0.625,0.625,0.625,1.636,0,2.261C47.531,47.578,47.121,47.734,46.711,47.734
		L46.711,47.734z"/>
	<g>
		<defs>
			<rect id="SVGID_1_" width="64.8" height="81"/>
		</defs>
		<clipPath id="SVGID_2_">
			<use xlink:href="#SVGID_1_"  style="overflow:visible;"/>
		</clipPath>
		<path class="st1" d="M19.523,49.812c-2.957,0-5.441-0.922-7.187-2.668c-2.789-2.789-3.418-7.289-1.773-12.676
			c1.539-5.035,4.925-10.347,9.531-14.953c6.429-6.429,14.261-10.422,20.441-10.422c2.957,0,5.445,0.922,7.188,2.668
			c2.793,2.789,3.422,7.289,1.773,12.676c-1.539,5.035-4.922,10.348-9.531,14.949C33.535,45.8199,25.703,49.812,19.523,49.812
			L19.523,49.812z M40.535,12.293c-5.363,0-12.328,3.636-18.18,9.488c-4.242,4.242-7.343,9.082-8.734,13.625
			c-1.281,4.199-0.937,7.562,0.977,9.476c1.148,1.149,2.8549,1.2688,4.925,1.731c4.8992,1.0938,11.1871-0.9361,18.18-9.488
			c3.7979-4.6447,7.344-9.082,8.735-13.625c1.281-4.2,0.937-7.567-0.977-9.481C44.313,12.875,42.656,12.293,40.535,12.293
			L40.535,12.293z"/>
		<path class="st1" d="M30.148,63.441c-8.484,0-16.515-3.109-22.761-8.789L2.73,59.308c-0.625,0.625-1.636,0.625-2.261,0
			c-0.625-0.625-0.625-1.637,0-2.262l5.761-5.757c0.622-0.625,1.633-0.625,2.254-0.008l0.192,0.187
			c5.762,5.657,13.39,8.774,21.472,8.774c16.915,0,30.672-13.758,30.672-30.668c0-8.164-3.164-15.836-8.914-21.625
			c-0.027-0.02-0.051-0.043-0.07-0.067c-0.602-0.636-0.598-1.652,0.031-2.265c0.055-0.055,0.117-0.106,0.18-0.153l5-4.996
			c0.625-0.625,1.637-0.625,2.262,0c0.625,0.625,0.625,1.637,0,2.262L55.23,6.808c5.68,6.246,8.79,14.266,8.79,22.766
			C64.02,48.246,48.828,63.441,30.148,63.441L30.148,63.441z"/>
	</g>
</g>
</svg>
