<?xml version="1.0" encoding="utf-8"?>
<!-- Generator: Adobe Illustrator 17.1.0, SVG Export Plug-In . SVG Version: 6.00 Build 0)  -->
<!DOCTYPE svg PUBLIC "-//W3C//DTD SVG 1.1//EN" "http://www.w3.org/Graphics/SVG/1.1/DTD/svg11.dtd">
<svg version="1.1" id="Calque_1" xmlns="http://www.w3.org/2000/svg" xmlns:xlink="http://www.w3.org/1999/xlink" x="0px" y="0px"
	 viewBox="0 0 76.8 83" style="enable-background:new 0 0 76.8 83;" xml:space="preserve">
<style type="text/css">
	.st0{clip-path:url(#SVGID_2_);fill:#E1057A;}
	.st1{fill:#E1057A;}
</style>
<g>
	<g>
		<defs>
			<rect id="SVGID_1_" y="0" width="76.8" height="83"/>
		</defs>
		<clipPath id="SVGID_2_">
			<use xlink:href="#SVGID_1_"  style="overflow:visible;"/>
		</clipPath>
		<path class="st0" d="M66.574,82.32H47.371c-0.883,0-1.598-0.714-1.598-1.597V54.738h-14.55v25.981
			c0,0.883-0.719,1.601-1.602,1.601H10.418c-0.883,0-1.598-0.718-1.598-1.601V40.016c0-0.418,0.16-0.821,0.453-1.117L37.43,10.031
			c0.3-0.308,0.715-0.48,1.144-0.48h0.004c0.43,0,0.844,0.176,1.145,0.484l28,28.864c0.293,0.3,0.453,0.699,0.453,1.117v40.703
			C68.176,81.606,67.457,82.32,66.574,82.32L66.574,82.32z M48.973,79.121h16.004V40.664L38.57,13.445L12.02,40.668v38.453h16.003
			V53.137c0-0.883,0.715-1.602,1.598-1.602h17.75c0.883,0,1.602,0.719,1.602,1.602V79.121z"/>
		<path class="st0" d="M1.602,41.434c-0.403,0-0.801-0.149-1.114-0.446c-0.633-0.613-0.652-1.628-0.039-2.261L37.285,0.488
			C37.586,0.176,38,0,38.43,0c0.472-0.004,0.847,0.172,1.152,0.481l36.75,37.593c0.617,0.633,0.606,1.645-0.023,2.262
			c-0.633,0.617-1.645,0.606-2.262-0.023L38.445,3.899L2.754,40.945C2.438,41.27,2.02,41.434,1.602,41.434L1.602,41.434z"/>
	</g>
	<path class="st1" d="M16.289,26.188c-0.883,0-1.601-0.715-1.601-1.598V6.344c0-0.883,0.718-1.598,1.601-1.598
		c0.883,0,1.602,0.715,1.602,1.598V24.59C17.891,25.473,17.172,26.188,16.289,26.188L16.289,26.188z"/>
</g>
</svg>
