<?xml version="1.0" encoding="utf-8"?>
<!-- Generator: Adobe Illustrator 17.1.0, SVG Export Plug-In . SVG Version: 6.00 Build 0)  -->
<!DOCTYPE svg PUBLIC "-//W3C//DTD SVG 1.1//EN" "http://www.w3.org/Graphics/SVG/1.1/DTD/svg11.dtd">
<svg version="1.1" id="Calque_1" xmlns="http://www.w3.org/2000/svg" xmlns:xlink="http://www.w3.org/1999/xlink" x="0px" y="0px"
	 viewBox="0 0 78.96 61" style="enable-background:new 0 0 78.96 61;" xml:space="preserve">
<style type="text/css">
	.st0{fill:#E1057A;}
	.st1{clip-path:url(#SVGID_2_);fill:#E1057A;}
</style>
<g>
	<path class="st0" d="M76.457,10.05H19.984c-0.882,0-1.601-0.718-1.601-1.601c0-0.883,0.719-1.598,1.601-1.598h56.473
		c0.883,0,1.598,0.715,1.598,1.598C78.055,9.332,77.34,10.05,76.457,10.05L76.457,10.05z"/>
	<path class="st0" d="M76.457,32.738H19.984c-0.882,0-1.601-0.719-1.601-1.602s0.719-1.597,1.601-1.597h56.473
		c0.883,0,1.598,0.714,1.598,1.597S77.34,32.738,76.457,32.738L76.457,32.738z"/>
	<g>
		<defs>
			<rect id="SVGID_1_" x="0" width="78.96" height="61"/>
		</defs>
		<clipPath id="SVGID_2_">
			<use xlink:href="#SVGID_1_"  style="overflow:visible;"/>
		</clipPath>
		<path class="st1" d="M76.457,55.5H19.984c-0.882,0-1.601-0.715-1.601-1.602c0-0.883,0.719-1.598,1.601-1.598h56.473
			c0.883,0,1.598,0.715,1.598,1.598C78.055,54.785,77.34,55.5,76.457,55.5L76.457,55.5z"/>
		<path class="st1" d="M5.199,14.246c-0.883,0-1.597-0.719-1.597-1.602V5.199l-0.93,0.84C2.016,6.632,1.008,6.582,0.414,5.925
			C-0.18,5.269-0.129,4.257,0.527,3.664l3.602-3.25c0.469-0.426,1.144-0.532,1.719-0.278c0.578,0.258,0.953,0.828,0.953,1.461
			v11.047C6.801,13.527,6.082,14.246,5.199,14.246L5.199,14.246z"/>
		<path class="st1" d="M7.465,36.937H1.602c-0.668,0-1.266-0.414-1.5-1.039c-0.235-0.625-0.055-1.332,0.449-1.77
			c1.402-1.23,4.801-5.003,4.336-8.167c-0.289-0.211-0.762-0.297-1.137-0.176c-0.254,0.078-0.551,0.261-0.551,0.941
			c0,0.883-0.715,1.598-1.597,1.598C0.719,28.324,0,27.609,0,26.726c0-1.918,1.066-3.449,2.785-3.992
			c1.797-0.57,3.852,0.082,4.891,1.555c0.113,0.16,0.195,0.343,0.242,0.535c0.836,3.351-0.965,6.668-2.684,8.914h2.235
			c0.883,0,1.597,0.715,1.597,1.598C9.066,36.218,8.352,36.937,7.465,36.937L7.465,36.937z"/>
	</g>
	<path class="st0" d="M4.266,55.109c-0.883,0-1.598-0.719-1.598-1.602c0-0.882,0.715-1.601,1.598-1.601
		c0.566,0,1.031-0.461,1.031-1.028c0-0.57-0.465-1.031-1.031-1.031h-2.36c-0.886,0-1.601-0.719-1.601-1.601
		c0-0.883,0.715-1.598,1.601-1.598h2.36c2.332,0,4.23,1.898,4.23,4.23C8.496,53.211,6.598,55.109,4.266,55.109L4.266,55.109z"/>
	<path class="st0" d="M4.266,60.363c-0.883,0-1.598-0.715-1.598-1.598c0-0.883,0.715-1.601,1.598-1.601
		c0.566,0,1.031-0.461,1.031-1.032c0-0.566-0.465-1.023-1.031-1.023c-0.883,0-1.598-0.719-1.598-1.602
		c0-0.882,0.715-1.601,1.598-1.601c2.332,0,4.23,1.898,4.23,4.226C8.496,58.464,6.598,60.363,4.266,60.363L4.266,60.363z"/>
	<path class="st0" d="M3.637,60.476H1.906c-0.886,0-1.601-0.719-1.601-1.601c0-0.883,0.715-1.598,1.601-1.598h1.731
		c0.883,0,1.601,0.715,1.601,1.598C5.238,59.757,4.52,60.476,3.637,60.476L3.637,60.476z"/>
</g>
</svg>
