<?xml version="1.0" encoding="utf-8"?>
<!-- Generator: Adobe Illustrator 17.1.0, SVG Export Plug-In . SVG Version: 6.00 Build 0)  -->
<!DOCTYPE svg PUBLIC "-//W3C//DTD SVG 1.1//EN" "http://www.w3.org/Graphics/SVG/1.1/DTD/svg11.dtd">
<svg version="1.1" id="Calque_1" xmlns="http://www.w3.org/2000/svg" xmlns:xlink="http://www.w3.org/1999/xlink" x="0px" y="0px"
	 viewBox="0 0 80.012 80.008" style="enable-background:new 0 0 80.012 80.008;" xml:space="preserve">
<style type="text/css">
	.st0{fill:#ED3E70;}
</style>
<g>
	<path class="st0" d="M25.875,80.008H2.93c-1.617,0-2.93-1.312-2.93-2.929V17.235c0-1.617,1.313-2.93,2.93-2.93h22.945
		c1.617,0,2.93,1.313,2.93,2.93v59.844C28.805,78.696,27.492,80.008,25.875,80.008L25.875,80.008z M3.199,76.809h22.406V17.504
		H3.199V76.809z"/>
	<path class="st0" d="M54.41,80.008H25.605V14.305h7.247c0.882,0,1.601,0.715,1.601,1.598c0,0.886-0.719,1.601-1.601,1.601h-4.047
		v59.305h22.406V47.157c0-0.883,0.715-1.602,1.598-1.602c0.886,0,1.601,0.719,1.601,1.602V80.008z"/>
	<path class="st0" d="M77.086,80.008H52.809c-0.883,0-1.598-0.715-1.598-1.597c0-0.883,0.715-1.602,1.598-1.602h24.004V17.504
		h-3.731c-0.883,0-1.602-0.715-1.602-1.601c0-0.883,0.719-1.598,1.602-1.598h4.004c1.613,0,2.926,1.313,2.926,2.93v59.844
		C80.012,78.696,78.699,80.008,77.086,80.008L77.086,80.008z"/>
	<path class="st0" d="M52.824,41.243l-1.105-1.036c-0.563-0.523-13.785-13.015-13.785-25.332C37.934,6.672,44.609,0,52.809,0
		c8.203,0,14.875,6.672,14.875,14.875c0,11.996-13.207,24.782-13.766,25.321L52.824,41.243z M52.809,3.2
		c-6.438,0-11.676,5.238-11.676,11.675c0,9.004,8.562,18.68,11.664,21.891c3.098-3.27,11.687-13.137,11.687-21.891
		C64.484,8.438,59.246,3.2,52.809,3.2L52.809,3.2z"/>
	<path class="st0" d="M52.809,21.731c-4.032,0-7.309-3.281-7.309-7.313c0-4.0269,3.277-7.308,7.309-7.308
		c4.031,0,7.312,3.281,7.312,7.308C60.121,18.454,56.84,21.731,52.809,21.731L52.809,21.731z M52.809,10.309
		c-2.266,0-4.11,1.844-4.11,4.113c0,2.266,1.844,4.11,4.11,4.11c2.265,0,4.113-1.844,4.113-4.11
		C56.922,12.153,55.074,10.309,52.809,10.309L52.809,10.309z"/>
</g>
</svg>
