<?xml version="1.0" encoding="utf-8"?>
<!-- Generator: Adobe Illustrator 17.1.0, SVG Export Plug-In . SVG Version: 6.00 Build 0)  -->
<!DOCTYPE svg PUBLIC "-//W3C//DTD SVG 1.1//EN" "http://www.w3.org/Graphics/SVG/1.1/DTD/svg11.dtd">
<svg version="1.1" id="Calque_1" xmlns="http://www.w3.org/2000/svg" xmlns:xlink="http://www.w3.org/1999/xlink" x="0px" y="0px"
	 viewBox="0 0 69.84 71" style="enable-background:new 0 0 69.84 71;" xml:space="preserve">
<style type="text/css">
	.st0{clip-path:url(#SVGID_2_);fill:#E1057A;}
</style>
<g>
	<g>
		<defs>
			<rect id="SVGID_1_" x="0" width="69.84" height="71"/>
		</defs>
		<clipPath id="SVGID_2_">
			<use xlink:href="#SVGID_1_"  style="overflow:visible;"/>
		</clipPath>
		<path class="st0" d="M43.953,70.437c-0.617,0-1.183-0.355-1.449-0.918L29.016,40.847L0.934,27.937
			C0.344,27.668-0.023,27.074,0,26.425c0.023-0.644,0.434-1.214,1.043-1.441L67.691,0.101c0.582-0.219,1.243-0.078,1.684,0.36
			c0.445,0.441,0.59,1.097,0.379,1.683L45.457,69.382c-0.219,0.606-0.781,1.024-1.43,1.055C44,70.437,43.977,70.437,43.953,70.437
			L43.953,70.437z M5.766,26.636l25.117,11.547c0.34,0.156,0.617,0.43,0.777,0.774l12.098,25.711L65.57,4.308L5.766,26.636z"/>
		<path class="st0" d="M30.215,41.238c-0.41,0-0.82-0.156-1.133-0.469c-0.625-0.625-0.625-1.64,0-2.265L67.117,0.468
			c0.625-0.625,1.641-0.625,2.266,0c0.621,0.625,0.621,1.637,0,2.262L31.344,40.769C31.031,41.082,30.625,41.238,30.215,41.238
			L30.215,41.238z"/>
	</g>
</g>
</svg>
