<?xml version="1.0" encoding="utf-8"?>
<!-- Generator: Adobe Illustrator 17.1.0, SVG Export Plug-In . SVG Version: 6.00 Build 0)  -->
<!DOCTYPE svg PUBLIC "-//W3C//DTD SVG 1.1//EN" "http://www.w3.org/Graphics/SVG/1.1/DTD/svg11.dtd">
<svg version="1.1" id="Calque_1" xmlns="http://www.w3.org/2000/svg" xmlns:xlink="http://www.w3.org/1999/xlink" x="0px" y="0px"
	 viewBox="0 0 80.184 80" style="enable-background:new 0 0 80.184 80;" xml:space="preserve">
<style type="text/css">
	.st0{fill:#E1057A;}
</style>
<g>
	<path class="st0" d="M40.102,66.461l-1.106-1.035c-0.926-0.867-22.723-21.461-22.723-41.61C16.273,10.684,26.957,0,40.09,0
		c13.133,0,23.82,10.684,23.82,23.816c0,19.621-21.785,40.707-22.715,41.598L40.102,66.461z M40.09,3.199
		c-11.367,0-20.617,9.25-20.617,20.617c0,16.289,16.179,33.723,20.605,38.184c4.41-4.543,20.629-22.336,20.629-38.184
		C60.707,12.449,51.461,3.199,40.09,3.199L40.09,3.199z"/>
	<path class="st0" d="M40.09,34.215c-6.152,0-11.156-5.008-11.156-11.16c0-6.153,5.004-11.157,11.156-11.157
		c6.152,0,11.16,5.004,11.16,11.157C51.25,29.207,46.242,34.215,40.09,34.215L40.09,34.215z M40.09,15.098
		c-4.387,0-7.957,3.57-7.957,7.957c0,4.386,3.57,7.957,7.957,7.957c4.387,0,7.957-3.571,7.957-7.957
		C48.051,18.668,44.48,15.098,40.09,15.098L40.09,15.098z"/>
	<path class="st0" d="M40.09,80C20.168,80,0,75.801,0,67.773c0-7.074,15.488-10.062,22.145-11.015
		c0.882-0.125,1.687,0.48,1.812,1.355c0.125,0.875-0.48,1.684-1.355,1.813C9.863,61.754,3.199,65.258,3.199,67.773
		c0,3.77,14.035,9.028,36.891,9.028c22.855,0,36.89-5.258,36.89-9.028c0-2.535-6.726-6.054-19.585-7.875
		c-0.875-0.125-1.481-0.933-1.36-1.808c0.125-0.875,0.938-1.481,1.809-1.36c6.719,0.95,22.34,3.926,22.34,11.043
		C80.184,75.801,60.012,80,40.09,80L40.09,80z"/>
</g>
</svg>
