<?xml version="1.0" encoding="utf-8"?>
<!-- Generator: Adobe Illustrator 17.1.0, SVG Export Plug-In . SVG Version: 6.00 Build 0)  -->
<!DOCTYPE svg PUBLIC "-//W3C//DTD SVG 1.1//EN" "http://www.w3.org/Graphics/SVG/1.1/DTD/svg11.dtd">
<svg version="1.1" id="Calque_1" xmlns="http://www.w3.org/2000/svg" xmlns:xlink="http://www.w3.org/1999/xlink" x="0px" y="0px"
	 viewBox="0 0 79.508 76.329" style="enable-background:new 0 0 79.508 76.329;" xml:space="preserve">
<style type="text/css">
	.st0{fill:#E1057A;}
</style>
<g>
	<path class="st0" d="M61.391,76.329c-0.953,0-1.879-0.29-2.672-0.836c-0.414-0.297-15.028-10.938-18.965-13.805l-18.93,13.781
		c-0.832,0.57-1.758,0.86-2.707,0.86c-2.582,0-4.683-2.106-4.683-4.7c0-0.511,0.089-1.043,0.269-1.586l0.031-0.082
		c0.204-0.57,4.973-15.199,7.207-22.062C15.066,43.61,2.531,34.454,2.02,34.102C0.746,33.207,0,31.77,0,30.235
		c0-2.645,2.086-4.797,4.652-4.797h23.477l7.144-22.07C35.824,1.411,37.672,0,39.754,0c2.082,0,3.934,1.411,4.5,3.426l7.156,22.012
		h23.481c2.547,0,4.617,2.144,4.617,4.781c0,1.543-0.746,2.988-2,3.867c-0.535,0.371-13.07,9.524-18.942,13.813
		c2.239,6.871,7.012,21.512,7.219,22.097c0.195,0.583,0.289,1.118,0.289,1.633C66.074,74.223,63.973,76.329,61.391,76.329
		L61.391,76.329z M39.754,57.727l0.941,0.687c6.719,4.891,19.512,14.211,19.86,14.457c0.238,0.165,0.535,0.258,0.836,0.258
		c0.816,0,1.484-0.672,1.484-1.5c0-0.168-0.035-0.359-0.105-0.57c-0.122-0.297-5.36-16.379-7.606-23.273l-0.359-1.102L55.742,46
		c1.988-1.457,19.449-14.211,19.953-14.55c0.375-0.262,0.614-0.731,0.614-1.235c0-0.855-0.649-1.578-1.418-1.578H49.086
		L41.188,4.352c-0.2-0.715-0.77-1.152-1.434-1.152c-0.664,0-1.234,0.441-1.418,1.093l-7.879,24.344H4.652
		c-0.789,0-1.453,0.731-1.453,1.598c0,0.492,0.239,0.953,0.637,1.234c0.48,0.32,17.941,13.078,19.93,14.531l0.937,0.684
		l-0.359,1.105c-2.172,6.672-7.149,21.946-7.602,23.266c-0.07,0.215-0.109,0.406-0.109,0.574c0,0.828,0.668,1.504,1.484,1.504
		c0.305,0,0.594-0.094,0.856-0.273L39.754,57.727z"/>
</g>
</svg>
