<?xml version="1.0" encoding="utf-8"?>
<!-- Generator: Adobe Illustrator 17.1.0, SVG Export Plug-In . SVG Version: 6.00 Build 0)  -->
<!DOCTYPE svg PUBLIC "-//W3C//DTD SVG 1.1//EN" "http://www.w3.org/Graphics/SVG/1.1/DTD/svg11.dtd">
<svg version="1.1" id="Calque_1" xmlns="http://www.w3.org/2000/svg" xmlns:xlink="http://www.w3.org/1999/xlink" x="0px" y="0px"
	 viewBox="0 0 80.207 80.203" style="enable-background:new 0 0 80.207 80.203;" xml:space="preserve">
<style type="text/css">
	.st0{fill:#A19B87;}
</style>
<g>
	<path class="st0" d="M34.313,57.258c-4.243,0-8.368-1.211-11.938-3.5c-0.629-0.403-0.895-1.188-0.641-1.891
		c0.254-0.703,0.957-1.129,1.7-1.043c0.48,0.059,0.98,0.086,1.527,0.086c1.715,0,3.367-0.324,4.902-0.949
		c-1.957-1.063-3.492-2.852-4.199-5.07c-0.141-0.438-0.086-0.911,0.141-1.297c-1.703-1.621-2.75-3.914-2.75-6.399v-0.086
		c0-0.566,0.297-1.089,0.785-1.379c0.027-0.015,0.051-0.031,0.078-0.043c-0.523-1.14-0.805-2.394-0.805-3.691
		c0-1.559,0.414-3.094,1.196-4.437c0.265-0.454,0.734-0.75,1.257-0.789c0.52-0.043,1.036,0.175,1.368,0.585
		c2.984,3.665,7.234,6.071,11.859,6.77c0.074-4.801,4.004-8.684,8.824-8.684c2.113,0,4.16,0.77,5.75,2.129
		c1.153-0.3,2.254-0.761,3.289-1.371c0.223-0.137,0.485-0.219,0.766-0.226c0.019,0,0.023-0.004,0.062,0
		c0.883,0,1.594,0.714,1.594,1.597c0,0.211-0.039,0.414-0.113,0.598c-0.078,0.234-0.164,0.461-0.262,0.684
		c0.367,0.058,0.715,0.25,0.969,0.546c0.457,0.547,0.5,1.329,0.105,1.922c-0.918,1.375-2.027,2.59-3.312,3.625
		c0,0.051,0,0.106,0,0.16C56.469,45.992,48.18,57.258,34.313,57.258L34.313,57.258z M29.566,53.453
		c1.539,0.399,3.133,0.602,4.747,0.602c11.867,0,18.953-9.633,18.953-18.95c0-0.289-0.004-0.574-0.02-0.859
		c-0.019-0.449,0.149-0.883,0.457-1.195c-0.422-0.172-0.762-0.516-0.918-0.973c-0.129-0.387-0.105-0.801,0.051-1.156
		c-0.418-0.012-0.82-0.192-1.113-0.504c-1.059-1.125-2.555-1.773-4.106-1.773c-3.101,0-5.625,2.519-5.625,5.621
		c0,0.433,0.051,0.863,0.149,1.285c0.113,0.488-0.012,1.004-0.336,1.386c-0.321,0.387-0.805,0.61-1.305,0.571
		c-5.312-0.266-10.34-2.449-14.156-6.09c-0.02,0.191-0.031,0.387-0.031,0.578c0,1.887,0.937,3.637,2.503,4.684
		c0.594,0.394,0.852,1.136,0.637,1.816c-0.219,0.68-0.82,1.137-1.574,1.113c-0.379-0.011-0.754-0.047-1.129-0.109
		c0.727,1.613,2.195,2.848,4.012,3.211c0.726,0.148,1.258,0.769,1.285,1.512c0.027,0.738-0.457,1.402-1.172,1.597
		c-0.305,0.086-0.617,0.153-0.934,0.203c1.016,1.098,2.454,1.77,4.02,1.797c0.676,0.012,1.273,0.446,1.488,1.09
		c0.215,0.641,0.004,1.348-0.527,1.766C33.301,51.949,31.492,52.883,29.566,53.453L29.566,53.453z"/>
	<path class="st0" d="M40.102,80.203C17.988,80.203,0,62.215,0,40.102C0,17.988,17.988,0,40.102,0
		c22.117,0,40.105,17.988,40.105,40.102C80.207,62.215,62.215,80.203,40.102,80.203L40.102,80.203z M40.102,3.199
		c-20.348,0-36.903,16.555-36.903,36.903c0,20.351,16.555,36.902,36.903,36.902c20.351,0,36.906-16.551,36.906-36.902
		C77.008,19.754,60.453,3.199,40.102,3.199L40.102,3.199z"/>
</g>
</svg>
