<?xml version="1.0" encoding="utf-8"?>
<!-- Generator: Adobe Illustrator 17.1.0, SVG Export Plug-In . SVG Version: 6.00 Build 0)  -->
<!DOCTYPE svg PUBLIC "-//W3C//DTD SVG 1.1//EN" "http://www.w3.org/Graphics/SVG/1.1/DTD/svg11.dtd">
<svg version="1.1" id="Calque_1" xmlns="http://www.w3.org/2000/svg" xmlns:xlink="http://www.w3.org/1999/xlink" x="0px" y="0px"
	 viewBox="0 0 82.6576 80.016" style="enable-background:new 0 0 82.6576 80.016;" xml:space="preserve">
<style type="text/css">
	.st0{fill:#E1057A;}
</style>
<g>
	<path class="st0" d="M49.348,80.016H21.465c-0.883,0-1.598-0.715-1.598-1.602V62.793c0-0.883,0.715-1.602,1.598-1.602
		c0.883,0,1.601,0.719,1.601,1.602v14.023H47.75V67.52c0-0.844,0.648-1.54,1.484-1.598c0.317-0.024,9.504-0.016,17.797-0.008V54.668
		c0-0.887,0.715-1.602,1.602-1.602h3.301v-9.761c0-0.883,0.718-1.602,1.601-1.602h4.988l-6.367-13.348
		C72.055,28.141,72,27.906,72,27.668C72,14.176,61.023,3.199,47.535,3.199c-3.859,0-7.547,0.871-10.965,2.59
		c-0.789,0.395-1.75,0.078-2.148-0.711c-0.399-0.789-0.078-1.75,0.711-2.148C39,0.984,43.172,0,47.535,0
		C62.668,0,75,12.215,75.199,27.301l7.305,15.312c0.234,0.496,0.199,1.082-0.094,1.543c-0.289,0.465-0.801,0.75-1.351,0.75h-5.922
		v9.762c0,0.883-0.719,1.598-1.602,1.598H70.23V67.52c0,0.421-0.167,0.828-0.468,1.128c-0.301,0.301-0.707,0.469-1.129,0.469h-0.004
		c-5.918-0.008-14.262-0.015-17.68-0.008v9.305C50.949,79.301,50.23,80.016,49.348,80.016L49.348,80.016z"/>
	<path class="st0" d="M32.172,24.008H11.273c-0.882,0-1.597-0.715-1.597-1.598s0.715-1.601,1.597-1.601h20.895
		c0.887,0,1.602,0.718,1.602,1.601S33.055,24.008,32.172,24.008L32.172,24.008z"/>
	<path class="st0" d="M32.172,31.941H11.273c-0.882,0-1.597-0.714-1.597-1.597c0-0.883,0.715-1.602,1.597-1.602h20.895
		c0.887,0,1.602,0.719,1.602,1.602C33.77,31.227,33.055,31.941,32.172,31.941L32.172,31.941z"/>
	<path class="st0" d="M23.32,58.086L7.043,41.809C2.566,37.746,0,31.953,0,25.914C0,14.078,9.629,4.449,21.465,4.449
		S42.93,14.078,42.93,25.914c0,11.152-8.66,20.43-19.61,21.379V58.086z M21.465,7.648c-10.07,0-18.266,8.192-18.266,18.266
		c0,5.152,2.196,10.09,6.02,13.551l0.058,0.055l10.844,10.839v-6.168l1.578-0.019c9.942-0.125,18.031-8.317,18.031-18.262
		C39.73,15.844,31.535,7.648,21.465,7.648L21.465,7.648z"/>
</g>
</svg>
