<?xml version="1.0" encoding="utf-8"?>
<!-- Generator: Adobe Illustrator 17.1.0, SVG Export Plug-In . SVG Version: 6.00 Build 0)  -->
<!DOCTYPE svg PUBLIC "-//W3C//DTD SVG 1.1//EN" "http://www.w3.org/Graphics/SVG/1.1/DTD/svg11.dtd">
<svg version="1.1" id="Calque_1" xmlns="http://www.w3.org/2000/svg" xmlns:xlink="http://www.w3.org/1999/xlink" x="0px" y="0px"
	 viewBox="0 0 80.88 64" style="enable-background:new 0 0 80.88 64;" xml:space="preserve">
<style type="text/css">
	.st0{fill:#E1057A;}
	.st1{clip-path:url(#SVGID_2_);fill:#E1057A;}
</style>
<g>
	<path class="st0" d="M56.48,46.07c-0.46,0-0.917-0.199-1.234-0.582c-3.801-4.617-9.41-7.261-15.383-7.261
		c-5.781,0-11.269,2.507-15.054,6.878c-0.579,0.668-1.59,0.743-2.258,0.165c-0.668-0.582-0.742-1.59-0.16-2.258
		c4.394-5.074,10.765-7.985,17.472-7.985c6.934,0,13.442,3.071,17.852,8.426c0.562,0.684,0.465,1.692-0.219,2.254
		C57.199,45.953,56.84,46.07,56.48,46.07L56.48,46.07z"/>
	<g>
		<defs>
			<rect id="SVGID_1_" x="0" y="0" width="80.88" height="64"/>
		</defs>
		<clipPath id="SVGID_2_">
			<use xlink:href="#SVGID_1_"  style="overflow:visible;"/>
		</clipPath>
		<path class="st1" d="M67.887,32.691c-0.438,0-0.875-0.179-1.192-0.531c-6.824-7.625-16.605-11.996-26.832-11.996
			c-10.027,0-19.679,4.231-26.48,11.609c-0.598,0.649-1.61,0.692-2.262,0.09c-0.648-0.597-0.691-1.609-0.09-2.258
			c7.407-8.035,17.914-12.64,28.832-12.64c11.133,0,21.785,4.758,29.215,13.058c0.59,0.657,0.535,1.668-0.125,2.258
			C68.648,32.559,68.27,32.691,67.887,32.691L67.887,32.691z"/>
		<path class="st1" d="M78.5,20.109c-0.43,0-0.859-0.171-1.172-0.515C67.699,9.176,54.043,3.199,39.859,3.199
			c-14.183,0-27.359,5.688-37.093,16.008c-0.61,0.645-1.621,0.672-2.262,0.066c-0.645-0.605-0.676-1.617-0.066-2.261
			C10.785,6.043,24.785,0,39.859,0c15.075,0,29.586,6.352,39.817,17.426c0.601,0.648,0.562,1.66-0.086,2.262
			C79.281,19.969,78.891,20.109,78.5,20.109L78.5,20.109z"/>
	</g>
	<path class="st0" d="M40.039,63.488c-3.684,0-6.684-3-6.684-6.687c0-3.684,3-6.684,6.684-6.684c3.688,0,6.684,3,6.684,6.684
		C46.723,60.488,43.727,63.488,40.039,63.488L40.039,63.488z M40.039,53.32c-1.922,0-3.484,1.559-3.484,3.481
		s1.562,3.488,3.484,3.488c1.922,0,3.484-1.566,3.484-3.488S41.961,53.32,40.039,53.32L40.039,53.32z"/>
</g>
</svg>
