<?xml version="1.0" encoding="utf-8"?>
<!-- Generator: Adobe Illustrator 17.1.0, SVG Export Plug-In . SVG Version: 6.00 Build 0)  -->
<!DOCTYPE svg PUBLIC "-//W3C//DTD SVG 1.1//EN" "http://www.w3.org/Graphics/SVG/1.1/DTD/svg11.dtd">
<svg version="1.1" id="Calque_1" xmlns="http://www.w3.org/2000/svg" xmlns:xlink="http://www.w3.org/1999/xlink" x="0px" y="0px"
	 viewBox="0 0 79.92 80" style="enable-background:new 0 0 79.92 80;" xml:space="preserve">
<style type="text/css">
	.st0{clip-path:url(#SVGID_2_);fill:#E1057A;}
</style>
<g>
	<g>
		<defs>
			<rect id="SVGID_1_" x="0" y="0" width="79.92" height="80"/>
		</defs>
		<clipPath id="SVGID_2_">
			<use xlink:href="#SVGID_1_"  style="overflow:visible;"/>
		</clipPath>
		<path class="st0" d="M18.848,79.84c-2.508,0-4.95-0.484-7.258-1.449c-0.492-0.203-0.848-0.645-0.953-1.164
			c-0.102-0.524,0.062-1.067,0.437-1.446l7.328-7.328c1.934-1.929,1.934-5.074,0-7.004C17.469,60.516,16.223,60,14.902,60
			c-1.324,0-2.57,0.512-3.504,1.449L4.07,68.778c-0.379,0.378-0.918,0.546-1.441,0.441c-0.524-0.106-0.961-0.461-1.168-0.957
			c-2.949-7.074-1.356-15.149,4.062-20.566c3.555-3.559,8.286-5.516,13.317-5.516c1.875,0,3.723,0.273,5.504,0.816l18.668-18.664
			c-2.016-6.613-0.227-13.898,4.691-18.82C51.258,1.957,55.988,0,61.016,0c2.511,0,4.953,0.488,7.257,1.449
			c0.493,0.207,0.848,0.645,0.954,1.164c0.105,0.528-0.063,1.067-0.438,1.446l-7.328,7.328c-1.93,1.93-1.93,5.07,0,7.004
			c0.937,0.933,2.18,1.449,3.504,1.449c1.32,0,2.566-0.516,3.5-1.449l7.328-7.328c0.379-0.379,0.918-0.539,1.441-0.438
			c0.524,0.102,0.961,0.461,1.168,0.953c2.95,7.075,1.356,15.149-4.062,20.567c-3.555,3.558-8.285,5.515-13.317,5.515
			c-1.875,0-3.722-0.277-5.503-0.82L36.852,55.508c2.015,6.613,0.226,13.898-4.692,18.82C28.605,77.883,23.875,79.84,18.848,79.84
			L18.848,79.84z M15.176,76.207c1.195,0.289,2.422,0.434,3.672,0.434c4.175,0,8.097-1.625,11.05-4.578
			c4.286-4.285,5.707-10.739,3.622-16.438c-0.215-0.586-0.071-1.238,0.371-1.679l20.066-20.067c0.441-0.441,1.094-0.586,1.68-0.371
			c1.73,0.633,3.543,0.953,5.386,0.953c4.176,0,8.102-1.625,11.051-4.574c3.906-3.91,5.422-9.481,4.145-14.727l-5.492,5.493
			c-1.539,1.543-3.586,2.39-5.762,2.39c-2.18,0-4.227-0.851-5.766-2.39c-3.179-3.18-3.179-8.352,0-11.528l5.489-5.492
			c-1.196-0.289-2.422-0.434-3.672-0.434c-4.172,0-8.098,1.629-11.051,4.579c-4.285,4.289-5.707,10.738-3.621,16.437
			c0.215,0.586,0.07,1.242-0.371,1.68L25.906,45.961c-0.437,0.442-1.093,0.586-1.679,0.371c-1.727-0.629-3.539-0.953-5.387-0.953
			c-4.176,0-8.102,1.629-11.055,4.578c-3.906,3.91-5.418,9.477-4.14,14.723l5.492-5.492c1.539-1.539,3.586-2.387,5.761-2.387
			c2.18,0,4.227,0.848,5.766,2.387c3.18,3.179,3.18,8.351,0,11.531L15.176,76.207z"/>
	</g>
</g>
</svg>
